# xmcd
#
# Track frame offsets:
# 150
# 10254
# 20067
# 32760
# 44595
# 55406
# 64848
# 75873
# 86848
# 99850
# 109532
# 118803
# 130425
# 141924
# 154375
# 164720
# 174215
# 184319
# 193368
# 206012
# 213365
# 220956
# 234315
# 242424
#
# Disc length: 3396 seconds
#
#
# Revision: 0
# Processed by: cddbd v1.5.2PL0 Copyright (c) Steve Scherf et al.
# Submitted via: Nero 7, 7, 5, 1 
#
DISCID=5d0d4218
DTITLE=Chet Atkins - CD 1 At Home and Finger-Style Guitar
DYEAR=2011
DGENRE=Country
TTITLE0=Say 'Si, Si'
TTITLE1=Vilia
TTITLE2=Sophisticated Lady
TTITLE3=Ay Ay Ay
TTITLE4=Nagasaki
TTITLE5=Yankee Doodle Dixie
TTITLE6=April In Portugal
TTITLE7=Jungle Drums
TTITLE8=In The Chapel In The Moonlight
TTITLE9=Martha
TTITLE10=Czardas
TTITLE11=You're Just In Love
TTITLE12=Swedish Rhapsody
TTITLE13=Liza
TTITLE14=In The Mood
TTITLE15=Heartaches
TTITLE16=Glow Worm
TTITLE17=Dance Of The Golden Rod
TTITLE18=Petite Waltz
TTITLE19=Adelita
TTITLE20=Gavotte In D
TTITLE21=Unchained Melody
TTITLE22=Waltz In A-Flat
TTITLE23=Malaguena
EXTD=
EXTT0=
EXTT1=
EXTT2=
EXTT3=
EXTT4=
EXTT5=
EXTT6=
EXTT7=
EXTT8=
EXTT9=
EXTT10=
EXTT11=
EXTT12=
EXTT13=
EXTT14=
EXTT15=
EXTT16=
EXTT17=
EXTT18=
EXTT19=
EXTT20=
EXTT21=
EXTT22=
EXTT23=
PLAYORDER=
